<?xml version="1.0" standalone="no"?>
<!DOCTYPE svg PUBLIC "-//W3C//DTD SVG 20010904//EN"
 "http://www.w3.org/TR/2001/REC-SVG-20010904/DTD/svg10.dtd">
<svg version="1.0" xmlns="http://www.w3.org/2000/svg"
 width="24.000000pt" height="24.000000pt" viewBox="0 0 24.000000 24.000000"
 preserveAspectRatio="xMidYMid meet">

<g transform="translate(0.000000,24.000000) scale(0.100000,-0.100000)"
fill="#000000" stroke="none">
<path d="M20 220 c-17 -17 -20 -33 -20 -100 0 -67 3 -83 20 -100 17 -17 33
-20 100 -20 109 0 120 11 120 120 0 67 -3 83 -20 100 -17 17 -33 20 -100 20
-67 0 -83 -3 -100 -20z m195 -100 l0 -95 -95 0 -95 0 -3 84 c-2 46 0 90 2 98
4 11 27 13 98 11 l93 -3 0 -95z"/>
<path d="M170 185 c0 -8 7 -15 15 -15 8 0 15 7 15 15 0 8 -7 15 -15 15 -8 0
-15 -7 -15 -15z"/>
<path d="M82 158 c-15 -15 -15 -61 0 -76 15 -15 61 -15 76 0 15 15 15 61 0 76
-15 15 -61 15 -76 0z m68 -13 c26 -32 -13 -81 -47 -59 -10 6 -19 19 -21 28 -8
38 43 61 68 31z"/>
</g>
</svg>
