<?xml version="1.0" standalone="no"?>
<!DOCTYPE svg PUBLIC "-//W3C//DTD SVG 20010904//EN"
 "http://www.w3.org/TR/2001/REC-SVG-20010904/DTD/svg10.dtd">
<svg version="1.0" xmlns="http://www.w3.org/2000/svg"
 width="24.000000pt" height="24.000000pt" viewBox="0 0 24.000000 24.000000"
 preserveAspectRatio="xMidYMid meet">

<g transform="translate(0.000000,24.000000) scale(0.100000,-0.100000)"
fill="#000000" stroke="none">
<path d="M14 216 c-10 -26 4 -48 28 -44 33 4 33 52 0 56 -13 2 -25 -3 -28 -12z
m36 -16 c0 -5 -4 -10 -10 -10 -5 0 -10 5 -10 10 0 6 5 10 10 10 6 0 10 -4 10
-10z"/>
<path d="M112 147 c-17 -18 -22 -36 -22 -75 0 -51 1 -52 30 -52 29 0 30 2 30
45 0 25 5 45 10 45 6 0 10 -20 10 -45 0 -43 1 -45 30 -45 30 0 30 1 30 53 0
43 -5 58 -23 75 -30 28 -68 28 -95 -1z m82 -13 c17 -17 22 -94 7 -94 -6 0 -11
19 -13 43 -3 37 -6 42 -28 42 -22 0 -25 -5 -28 -42 -4 -54 -22 -57 -22 -4 0
62 47 93 84 55z"/>
<path d="M10 90 l0 -70 30 0 30 0 0 70 0 70 -30 0 -30 0 0 -70z m40 0 c0 -27
-4 -50 -10 -50 -5 0 -10 23 -10 50 0 28 5 50 10 50 6 0 10 -22 10 -50z"/>
</g>
</svg>
