<?xml version="1.0" standalone="no"?>
<!DOCTYPE svg PUBLIC "-//W3C//DTD SVG 20010904//EN"
 "http://www.w3.org/TR/2001/REC-SVG-20010904/DTD/svg10.dtd">
<svg version="1.0" xmlns="http://www.w3.org/2000/svg"
 width="24.000000pt" height="24.000000pt" viewBox="0 0 24.000000 24.000000"
 preserveAspectRatio="xMidYMid meet">

<g transform="translate(0.000000,24.000000) scale(0.100000,-0.100000)"
fill="#000000" stroke="none">
<path d="M121 195 c-23 -31 -38 -31 -68 -3 -21 19 -26 20 -34 8 -13 -20 -4
-88 15 -109 22 -24 20 -31 -9 -31 -14 0 -25 -4 -25 -9 0 -12 56 -31 89 -31 58
0 131 73 131 132 0 15 5 30 10 33 25 16 7 30 -40 32 -42 2 -52 -2 -69 -22z
m63 -1 c36 -14 4 -114 -45 -139 -15 -8 -41 -15 -56 -15 -26 1 -27 2 -10 14 17
13 16 16 -13 44 -34 34 -42 79 -13 67 55 -22 74 -24 80 -7 14 38 28 47 57 36z"/>
</g>
</svg>
